<?xml version="1.0" encoding="UTF-8" standalone="no"?>
<svg width="220px" height="45px" viewBox="0 0 220 45" version="1.1" xmlns="http://www.w3.org/2000/svg" xmlns:xlink="http://www.w3.org/1999/xlink" xmlns:sketch="http://www.bohemiancoding.com/sketch/ns">
    <!-- Generator: Sketch 3.3.2 (12043) - http://www.bohemiancoding.com/sketch -->
    <title>banner_logo_light</title>
    <desc>Created with Sketch.</desc>
    <defs></defs>
    <g id="Page-1" stroke="none" stroke-width="1" fill="none" fill-rule="evenodd" sketch:type="MSPage">
        <g id="banner_logo_light" sketch:type="MSArtboardGroup">
            <g id="Group" sketch:type="MSLayerGroup" transform="translate(15.000000, 12.500000)">
                <g transform="translate(31.939655, 7.397260)" sketch:type="MSShapeGroup">
                    <path d="M3.8974569,11.1358904 C5.64436494,11.1358904 6.51781897,10.5361096 6.51781897,9.33654795 C6.51781897,8.96745205 6.44024246,8.65314247 6.28508944,8.39362192 C6.12993642,8.13410137 5.92019116,7.90918356 5.65585912,7.71886849 C5.39152435,7.52855342 5.08983657,7.36419178 4.75079849,7.22578082 C4.41176042,7.08736986 4.05261128,6.9489589 3.67334562,6.81054795 C3.23661861,6.66060274 2.82287723,6.49047123 2.43212148,6.30015616 C2.04136573,6.1098411 1.70232766,5.88492329 1.41500726,5.62540274 C1.12768685,5.36588219 0.900705101,5.05733973 0.734059267,4.69978082 C0.567413434,4.34221918 0.484090517,3.90968493 0.484090517,3.40217808 C0.484090517,2.35256164 0.840367816,1.53363014 1.55292241,0.945383562 C2.26547701,0.357136986 3.24811279,0.0630136986 4.50084339,0.0630136986 C5.2248908,0.0630136986 5.88285316,0.140869863 6.47473319,0.296582192 C7.06661322,0.452294521 7.50046839,0.622423288 7.77629598,0.806973973 L7.24188003,2.17378219 C7.00053089,2.02383699 6.64137902,1.87677671 6.16442716,1.73259863 C5.68747529,1.58842055 5.13294555,1.51633151 4.50084066,1.51633151 C4.17904181,1.51633151 3.88022859,1.55093425 3.60440101,1.62013973 C3.32857342,1.68934521 3.08722428,1.79315342 2.88035359,1.93156438 C2.6734829,2.06997534 2.50971164,2.24587123 2.38903707,2.45925479 C2.2683625,2.67263836 2.20802522,2.92350685 2.20802522,3.21186301 C2.20802522,3.53482192 2.2712357,3.80587671 2.39765668,4.0250274 C2.52407766,4.24417808 2.70221631,4.43737534 2.93207263,4.60462466 C3.16192895,4.77187123 3.42913556,4.92469863 3.73369519,5.06310959 C4.03825481,5.20152055 4.37442105,5.33993151 4.74219116,5.47834247 C5.25936789,5.6859589 5.73344519,5.89357534 6.16442852,6.10119178 C6.59540912,6.30880822 6.96892565,6.55679452 7.28497809,6.84515068 C7.60103053,7.13350685 7.84525424,7.47665205 8.01764648,7.87458356 C8.19003872,8.27251507 8.27623484,8.75406849 8.27623484,9.31924658 C8.27623484,10.368863 7.89410007,11.1762603 7.12982507,11.7414384 C6.3655528,12.3066164 5.28810266,12.5892055 3.89747737,12.5892055 C3.42627191,12.5892055 2.99241947,12.5574863 2.59591731,12.4940479 C2.19941516,12.4306096 1.8460097,12.355637 1.53570366,12.2691301 C1.22539763,12.1826233 0.95819102,12.0903493 0.734081106,11.9923082 C0.509971193,11.8942671 0.334704382,11.8106438 0.208283405,11.7414384 L0.708220905,10.3573288 C0.972555675,10.507274 1.37480424,10.6745205 1.91496659,10.8590685 C2.45512895,11.0436164 3.11596588,11.1358904 3.89747737,11.1358904 L3.8974569,11.1358904 Z" id="Shape" fill="#000000"></path>
                    <path d="M18.7231897,12.5893151 C17.9416782,12.5893151 17.263602,12.4682055 16.6889612,12.2259863 C16.1143204,11.9837671 15.6431149,11.6521562 15.2753448,11.2311589 C14.9075747,10.8101589 14.634619,10.3113041 14.4564803,9.73459178 C14.2783417,9.15787945 14.1892723,8.53503014 14.1892723,7.86604384 L14.1892723,0.339934247 L15.8614771,0.339934247 L15.8614771,7.67571507 C15.8614771,8.87527671 16.1258119,9.74611233 16.6544814,10.2882219 C17.1831509,10.8303315 17.8727199,11.1013863 18.7231883,11.1013863 C19.1484225,11.1013863 19.5363064,11.0350644 19.8868346,10.9024205 C20.2373654,10.7697767 20.5390532,10.5650425 20.7918952,10.2882205 C21.0447371,10.0113986 21.240115,9.65672192 21.3780288,9.22418767 C21.5159426,8.79165342 21.5848995,8.27549726 21.5848995,7.67571644 L21.5848995,0.339935616 L23.2571042,0.339935616 L23.2571042,7.86604521 C23.2571042,8.53503151 23.1680349,9.15788082 22.9898963,9.73459315 C22.8117576,10.3113055 22.53593,10.810163 22.1624135,11.2311603 C21.788897,11.6521603 21.3176915,11.9837685 20.7487971,12.2259877 C20.1799027,12.4682068 19.5047011,12.5893164 18.7231897,12.5893164 L18.7231897,12.5893151 Z" id="Shape" fill="#000000"></path>
                    <path d="M35.4797701,10.6687671 C35.364842,10.3919452 35.2125621,10.0401507 35.022932,9.61338356 C34.8333006,9.18661644 34.6293017,8.72524658 34.4109382,8.22927397 C34.1925747,7.73330137 33.9598438,7.22290959 33.7127483,6.69810411 C33.4656527,6.17329589 33.2329218,5.67732329 33.0145611,5.2101863 C32.7961976,4.74304932 32.5922014,4.32493425 32.4025672,3.95583836 C32.2129358,3.58674247 32.0606546,3.30415342 31.9457292,3.10807123 C31.8193082,4.46911233 31.7158728,5.94261918 31.6354231,7.52856438 C31.5549734,9.11452329 31.4860165,10.7148932 31.4285524,12.3296877 L29.7908261,12.3296877 C29.8367974,11.2916055 29.8885151,10.2448712 29.9459792,9.18949589 C30.0034432,8.13411233 30.0695269,7.09603014 30.1442302,6.07524932 C30.2189335,5.05446849 30.2993833,4.05963836 30.3855794,3.09075616 C30.4717755,2.12187945 30.5665912,1.20490685 30.6700279,0.339852055 L32.135362,0.339852055 C32.445668,0.847358904 32.7789597,1.44713973 33.135237,2.13919452 C33.4915143,2.83124932 33.8477916,3.55502192 34.2040689,4.31051507 C34.5603462,5.06600822 34.9051307,5.82150137 35.2384223,6.57699452 C35.571714,7.33248767 35.8762736,8.02166027 36.1521012,8.64450685 C36.4279288,8.02165753 36.7324884,7.33248767 37.0657801,6.57699452 C37.3990718,5.82150137 37.7438563,5.06600822 38.1001335,4.31051507 C38.4564108,3.55502192 38.8126881,2.83124932 39.1689654,2.13919452 C39.5252427,1.44713973 39.8585344,0.847358904 40.1688404,0.339852055 L41.6341745,0.339852055 C42.0249302,4.20382466 42.3179971,8.20045479 42.5133749,12.3297151 L40.8756486,12.3297151 C40.8181846,10.7149205 40.7492277,9.11453699 40.6687779,7.52859178 C40.5883282,5.94263288 40.4848929,4.46913973 40.3584719,3.10809863 C40.2435437,3.30418082 40.0912639,3.58676986 39.9016338,3.95586575 C39.7120024,4.32496164 39.5080035,4.74307671 39.28964,5.2102137 C39.0712765,5.67735068 38.8385483,6.17332329 38.5914528,6.69813151 C38.3443573,7.22293973 38.1116264,7.73333151 37.8932629,8.22930137 C37.6748994,8.72527397 37.4709032,9.18664384 37.2812718,9.61341096 C37.0916403,10.0401781 36.9393591,10.3919726 36.824431,10.6687945 L35.4797715,10.6687945 L35.4797701,10.6687671 Z" id="Shape" fill="#000000"></path>
                    <path d="M54.4773132,10.6687671 C54.3623851,10.3919452 54.2101052,10.0401507 54.0204724,9.61338356 C53.8308409,9.18661644 53.6268448,8.72524658 53.4084813,8.22927397 C53.1901178,7.73330137 52.9573869,7.22290959 52.7102914,6.69810411 C52.4631958,6.17329589 52.2304649,5.67732329 52.0121042,5.2101863 C51.7937407,4.74304932 51.5897445,4.32493425 51.4001103,3.95583836 C51.2104789,3.58674247 51.0581977,3.30415342 50.9432723,3.10807123 C50.8168513,4.46911233 50.7134159,5.94261918 50.6329662,7.52856438 C50.5525165,9.11452329 50.4835596,10.7148932 50.4260955,12.3296877 L48.7883693,12.3296877 C48.8343405,11.2916055 48.8860582,10.2448712 48.9435223,9.18949589 C49.0009864,8.13411233 49.06707,7.09603014 49.1417733,6.07524932 C49.2164767,5.05446849 49.2969264,4.05963836 49.3831225,3.09075616 C49.4693186,2.12187945 49.5641343,1.20490685 49.667571,0.339852055 L51.1329051,0.339852055 C51.4432111,0.847358904 51.7765028,1.44713973 52.1327801,2.13919452 C52.4890574,2.83124932 52.8453347,3.55502192 53.201612,4.31051507 C53.5578893,5.06600822 53.9026738,5.82150137 54.2359654,6.57699452 C54.5692571,7.33248767 54.8738167,8.02166027 55.1496443,8.64450685 C55.4254719,8.02165753 55.7300315,7.33248767 56.0633232,6.57699452 C56.3966149,5.82150137 56.7413994,5.06600822 57.0976767,4.31051507 C57.453954,3.55502192 57.8102312,2.83124932 58.1665085,2.13919452 C58.5227858,1.44713973 58.8560775,0.847358904 59.1663835,0.339852055 L60.6317176,0.339852055 C61.0224733,4.20382466 61.3155402,8.20045479 61.510918,12.3297151 L59.8731917,12.3297151 C59.8157277,10.7149205 59.7467708,9.11453699 59.666321,7.52859178 C59.5858713,5.94263288 59.482436,4.46913973 59.356015,3.10809863 C59.2410869,3.30418082 59.088807,3.58676986 58.8991769,3.95586575 C58.7095455,4.32496164 58.5055466,4.74307671 58.2871831,5.2102137 C58.0688196,5.67735068 57.8360915,6.17332329 57.5889959,6.69813151 C57.3419004,7.22293973 57.1091695,7.73333151 56.890806,8.22930137 C56.6724425,8.72527397 56.4684463,9.18664384 56.2788149,9.61341096 C56.0891834,10.0401781 55.9369022,10.3919726 55.8219741,10.6687945 L54.4773146,10.6687945 L54.4773132,10.6687671 Z" id="Shape" fill="#000000"></path>
                    <rect id="Rectangle-path" fill="#000000" x="68.1133621" y="0.339835616" width="1.67220474" height="11.989863"></rect>
                    <path d="M84.7148851,0.339835616 L84.7148851,1.79315068 L80.9567342,1.79315068 L80.9567342,12.3296712 L79.2845295,12.3296712 L79.2845295,1.79315068 L75.5263786,1.79315068 L75.5263786,0.339835616 L84.7148987,0.339835616 L84.7148851,0.339835616 Z" id="Shape" fill="#000000"></path>
                    <path d="M95.7995833,12.5720548 C93.8572974,12.5720548 92.3775905,12.0299452 91.3604899,10.945726 C90.3433757,9.86150685 89.83482,8.32168493 89.83482,6.32624658 C89.83482,5.33430137 89.989973,4.44904658 90.300279,3.67048493 C90.6105851,2.89192329 91.0358193,2.23447123 91.5759816,1.69812877 C92.116144,1.1617863 92.7597417,0.75520274 93.5067747,0.478383562 C94.2538078,0.201561644 95.0640513,0.0631506849 95.9375053,0.0631506849 C96.4431892,0.0631506849 96.9029019,0.100636986 97.3166432,0.175609589 C97.7303846,0.250582192 98.0924083,0.337089041 98.4027144,0.435130137 C98.7130204,0.533171233 98.9716088,0.63409589 99.1784795,0.737905479 C99.3853501,0.841713699 99.5347568,0.922453425 99.6266993,0.980124658 L98.8509342,3.16009726 C98.4831641,2.96401507 98.055058,2.79676849 97.5666134,2.65835753 C97.0781687,2.51994658 96.5236417,2.4507411 95.9030269,2.4507411 C95.4892855,2.4507411 95.0841624,2.51994658 94.6876629,2.65835753 C94.2911608,2.79676849 93.9406299,3.01880137 93.6360703,3.3244589 C93.3315106,3.63011644 93.0872897,4.02516301 92.9034019,4.50960137 C92.7195168,4.99403973 92.6275743,5.5822863 92.6275743,6.2743411 C92.6275743,6.82798493 92.6879116,7.34414384 92.8085861,7.82281507 C92.9292607,8.3014863 93.1246386,8.71383425 93.3947198,9.05986438 C93.6648009,9.40589178 94.0182064,9.67982877 94.4549334,9.88167808 C94.8916604,10.0835274 95.42033,10.1844534 96.040942,10.1844534 C96.4316978,10.1844534 96.7822287,10.1613849 97.0925347,10.1152479 C97.4028407,10.069111 97.6786683,10.0143233 97.9200175,9.95088493 C98.1613666,9.88744658 98.3739837,9.81535753 98.5578688,9.73461781 C98.7417538,9.65387808 98.9083996,9.57890548 99.0578063,9.5097 L99.7990929,11.6723712 C99.41983,11.9030562 98.885414,12.1106726 98.195845,12.2952205 C97.5062761,12.4797685 96.7075254,12.5720425 95.7995929,12.5720425 L95.7995833,12.5720548 Z" id="Shape" fill="#005DAA"></path>
                    <path d="M109.160187,0.201424658 C110.953066,0.201424658 112.326471,0.52150137 113.280348,1.16165205 C114.234251,1.80180274 114.711203,2.79663014 114.711203,4.14614521 C114.711203,4.98814521 114.518699,5.67155068 114.133691,6.1963589 C113.748681,6.72116712 113.194152,7.13351781 112.470104,7.43340548 C112.711453,7.73329589 112.964295,8.0764411 113.22863,8.46283836 C113.492965,8.84923562 113.754425,9.25293425 114.013016,9.67393425 C114.271604,10.0949342 114.521572,10.5332356 114.762924,10.9888384 C115.004273,11.4444411 115.228383,11.8913945 115.435253,12.3296959 L112.418376,12.3296959 C112.200012,11.9375315 111.978777,11.5396 111.754667,11.1359014 C111.530557,10.7322027 111.300701,10.3400384 111.065098,9.95940822 C110.829495,9.57877808 110.596767,9.21833151 110.366911,8.87807123 C110.137054,8.53781096 109.907198,8.22927123 109.677342,7.95244932 L108.349921,7.95244932 L108.349921,12.3297096 L105.660602,12.3297096 L105.660602,0.512860274 C106.246736,0.397517808 106.852983,0.316778082 107.479342,0.270641096 C108.1057,0.22450411 108.665974,0.201435616 109.160165,0.201435616 L109.160187,0.201424658 Z M109.315244,2.50252055 C109.119866,2.50252055 108.944602,2.50828767 108.789449,2.51982192 C108.634296,2.53135616 108.487761,2.54289041 108.34985,2.55442466 L108.34985,5.80708219 L109.108376,5.80708219 C110.119744,5.80708219 110.843792,5.68020548 111.280519,5.42645205 C111.717246,5.17269863 111.935609,4.74016438 111.935609,4.12884932 C111.935609,3.54060274 111.714372,3.12248493 111.271898,2.87450137 C110.829424,2.62651507 110.177208,2.50252055 109.315247,2.50252055 L109.315244,2.50252055 Z" id="Shape" fill="#005DAA"></path>
                    <path d="M121.296437,12.329589 L121.296437,0.339726027 L129.364394,0.339726027 L129.364394,2.60620548 L123.985756,2.60620548 L123.985756,4.95919178 L128.761007,4.95919178 L128.761007,7.17376712 L123.985756,7.17376712 L123.985756,10.0631096 L129.760882,10.0631096 L129.760882,12.329589 L121.296437,12.329589 L121.296437,12.329589 Z" id="Shape" fill="#005DAA"></path>
                    <path d="M139.138966,10.2709589 C139.518228,10.2709589 139.831406,10.2392397 140.078505,10.1758014 C140.3256,10.112363 140.52385,10.0258562 140.673256,9.91628082 C140.822663,9.80670548 140.926098,9.67694521 140.983562,9.52700137 C141.041027,9.37705616 141.069759,9.20980959 141.069759,9.02526164 C141.069759,8.63309726 140.885874,8.30725616 140.518103,8.04773288 C140.150333,7.78821233 139.518228,7.50850548 138.621789,7.20861781 C138.231033,7.07020685 137.840277,6.91160959 137.449522,6.73282877 C137.058766,6.55404795 136.708235,6.32913014 136.397929,6.05807534 C136.087623,5.78702055 135.834781,5.45829452 135.639403,5.07189726 C135.444025,4.6855 135.346336,4.21547808 135.346336,3.66183425 C135.346336,3.10819041 135.449772,2.60933288 135.656642,2.16526438 C135.863513,1.72119589 136.15658,1.34345068 136.535843,1.03202603 C136.915106,0.72060137 137.374818,0.481267123 137.914981,0.314020548 C138.455143,0.146773973 139.064262,0.0631506849 139.742338,0.0631506849 C140.546835,0.0631506849 141.242151,0.149657534 141.828284,0.322671233 C142.414418,0.495684932 142.897116,0.686 143.276379,0.893616438 L142.500614,3.02168493 C142.167323,2.84867123 141.796681,2.69584384 141.388686,2.56319726 C140.980691,2.43055342 140.489371,2.36423151 139.914733,2.36423151 C139.271136,2.36423151 138.808548,2.45362192 138.526977,2.63240274 C138.245403,2.81118356 138.104615,3.08512329 138.104615,3.45421918 C138.104615,3.67336986 138.156332,3.85791781 138.259768,4.00786301 C138.363203,4.15780822 138.509737,4.29333425 138.699367,4.41444384 C138.888998,4.53555342 139.107362,4.64512877 139.354457,4.74316986 C139.601553,4.84121096 139.874506,4.94213562 140.173319,5.04594521 C140.793931,5.27663014 141.334093,5.50443288 141.793806,5.72935068 C142.253519,5.95426849 142.635656,6.21667123 142.940216,6.51656164 C143.244775,6.81645205 143.47176,7.16824658 143.621164,7.57194521 C143.77057,7.97564384 143.845274,8.46584932 143.845274,9.04256164 C143.845274,10.1613836 143.454518,11.029337 142.673006,11.6464192 C141.891495,12.2635014 140.713481,12.5720438 139.138979,12.5720438 C138.61031,12.5720438 138.133358,12.5403247 137.708124,12.4768863 C137.282889,12.4134479 136.906501,12.3355918 136.578953,12.2433178 C136.251408,12.1510438 135.969834,12.0530027 135.734231,11.9491945 C135.498628,11.8453863 135.300379,11.7473452 135.139479,11.6550712 L135.898005,9.50970137 C136.254282,9.70578356 136.693884,9.88168219 137.216807,10.0373945 C137.73973,10.1931068 138.380453,10.270963 139.138979,10.270963 L139.138966,10.2709589 Z" id="Shape" fill="#005DAA"></path>
                    <path d="M157.820661,0.339835616 L157.820661,2.64091781 L154.217677,2.64091781 L154.217677,12.3296849 L151.528358,12.3296849 L151.528358,2.64091781 L147.925346,2.64091781 L147.925346,0.339835616 L157.820661,0.339835616 L157.820661,0.339835616 Z" id="Shape" fill="#005DAA"></path>
                </g>
                <path d="M24.1944253,15.9363014 L15.0143678,0.000136986301 L3.65122126,19.7261644 L23.3713649,19.7261644 L24.1944253,15.9363014 L24.1944253,15.9363014 Z" id="Shape" fill="#005DAA" sketch:type="MSShapeGroup"></path>
                <path d="M25.7586494,15.7516986 L28.0623994,19.7259452 L29.7557471,19.7259452 L26.3933477,13.9267671 C26.2623132,13.7007397 26.0204454,13.5615616 25.7586494,13.5615616 C25.4968534,13.5615616 25.2544397,13.7007397 25.1234052,13.9267671 L21.7708333,19.7259452 L23.464181,19.7259452 L25.7586494,15.7516986 L25.7586494,15.7516986 Z" id="Shape" fill="#000000" sketch:type="MSShapeGroup"></path>
                <path d="M12.1479885,8.18854795 L15.0143678,3.28772603 L17.8807471,8.18854795 L15.7170402,7.04936986 L15.0143678,8.27073973 L14.3116954,7.04936986 L12.1479885,8.18854795 L12.1479885,8.18854795 Z" id="Shape" fill="#FFFFFF" sketch:type="MSShapeGroup"></path>
                <path d="M6.50826437,14.7658904 L7.34934195,13.3058904 L6.28850862,11.4612329 C6.15802011,11.2352055 5.91779023,11.0957534 5.65790517,11.0957534 C5.39802011,11.0957534 5.15779023,11.2352055 5.02730172,11.4612329 L0.272933908,19.7258904 L1.9545431,19.7258904 L5.65790517,13.2875342 L6.50826437,14.7658904 L6.50826437,14.7658904 Z" id="Shape" fill="#000000" sketch:type="MSShapeGroup"></path>
            </g>
        </g>
    </g>
</svg>