<?xml version="1.0" encoding="UTF-8" standalone="no"?>
<svg width="400px" height="171px" viewBox="0 0 400 171" version="1.1" xmlns="http://www.w3.org/2000/svg" xmlns:xlink="http://www.w3.org/1999/xlink" xmlns:sketch="http://www.bohemiancoding.com/sketch/ns">
    <!-- Generator: Sketch 3.3.2 (12043) - http://www.bohemiancoding.com/sketch -->
    <title>logo_WavetronixDistributor</title>
    <desc>Created with Sketch.</desc>
    <defs></defs>
    <g id="Page-1" stroke="none" stroke-width="1" fill="none" fill-rule="evenodd" sketch:type="MSPage">
        <g id="logo_WavetronixDistributor" sketch:type="MSArtboardGroup">
            <g id="Group" sketch:type="MSLayerGroup" transform="translate(35.000000, 31.000000)">
                <path d="M48.125,27.5 C48.125,27.5 36.09375,30.9375 36.09375,36.09375 C36.09375,42.96875 55,46.40625 55,46.40625 L55,27.5 L48.125,27.5 L48.125,27.5 Z M27.5,27.5 L44.6875,27.5 C44.6875,27.5 30.9375,30.9375 30.9375,37.8125 C30.9375,48.125 55,53.28125 55,53.28125 L55,55 L27.5,55 L27.5,27.5 L27.5,27.5 Z" id="Shape" fill="#EAAB00" sketch:type="MSShapeGroup"></path>
                <path d="M330,0 L0,0 L0,110 L330,110 L330,0 L330,0 Z M328.472222,108.472222 L1.52777778,108.472222 L1.52777778,1.52777778 L328.472222,1.52777778 L328.472222,108.472222 L328.472222,108.472222 Z" id="Shape" fill="#999999" sketch:type="MSShapeGroup"></path>
                <path d="M94.0716944,54.982125 L86.0951667,54.982125 L81.4186389,34.1172639 L76.6993333,54.982125 L68.7228056,54.982125 L61.8753056,27.5172639 L68.0551667,27.5172639 L72.776,47.1461528 L77.6175278,27.5172639 L85.2594722,27.5172639 L90.0200278,47.1461528 L94.6965556,27.5172639 L100.877944,27.5172639 L94.0716944,54.982125 L94.0716944,54.982125 Z" id="Shape" fill="#000000" sketch:type="MSShapeGroup"></path>
                <path d="M107.693361,44.4667361 L114.082528,44.4667361 L110.907806,32.9625694 L107.693361,44.4667361 L107.693361,44.4667361 Z M123.603639,54.9824306 L117.089194,54.9824306 L115.585861,49.6229861 L106.272528,49.6229861 L104.770722,54.9824306 L98.25475,54.9824306 L106.732389,27.5175694 L115.08475,27.5175694 L123.603639,54.9824306 L123.603639,54.9824306 Z" id="Shape" fill="#000000" sketch:type="MSShapeGroup"></path>
                <path d="M137.4725,54.982125 L128.535,54.982125 L120.685278,27.5172639 L127.115694,27.5172639 L133.002222,49.3751806 L138.891806,27.5172639 L145.32375,27.5172639 L137.4725,54.982125 L137.4725,54.982125 Z" id="Shape" fill="#000000" sketch:type="MSShapeGroup"></path>
                <path d="M147.835417,54.982125 L147.835417,27.5172639 L165.331528,27.5172639 L165.331528,33.0035139 L154.099306,33.0035139 L154.099306,38.0329583 L164.454583,38.0329583 L164.454583,43.5176806 L154.099306,43.5176806 L154.099306,49.4974028 L165.331528,49.4974028 L165.331528,54.982125 L147.835417,54.982125 L147.835417,54.982125 Z" id="Shape" fill="#000000" sketch:type="MSShapeGroup"></path>
                <path d="M181.455694,33.0038194 L181.455694,54.9824306 L175.191806,54.9824306 L175.191806,33.0038194 L167.717917,33.0038194 L167.717917,27.5175694 L188.931111,27.5175694 L188.931111,33.0038194 L181.455694,33.0038194 L181.455694,33.0038194 Z" id="Shape" fill="#000000" sketch:type="MSShapeGroup"></path>
                <path d="M231.5775,36.0549444 C231.5775,33.9114722 230.199444,32.5899444 227.069028,32.5899444 C223.935556,32.5899444 222.5575,33.9114722 222.5575,36.0549444 L222.5575,46.4453611 C222.5575,48.5903611 223.935556,49.9088333 227.069028,49.9088333 C230.199444,49.9088333 231.5775,48.5903611 231.5775,46.4453611 L231.5775,36.0549444 L231.5775,36.0549444 Z M237.841389,46.9816111 C237.841389,51.1478611 234.91875,55.3935556 227.069028,55.3935556 C219.217778,55.3935556 216.293611,51.1478611 216.293611,46.9816111 L216.293611,35.5186944 C216.293611,31.3539722 219.217778,27.10675 227.069028,27.10675 C234.91875,27.10675 237.841389,31.3539722 237.841389,35.5186944 L237.841389,46.9816111 L237.841389,46.9816111 Z" id="Shape" fill="#000000" sketch:type="MSShapeGroup"></path>
                <path d="M247.787222,36.9202778 L247.787222,54.9816667 L241.816667,54.9816667 L241.816667,27.5183333 L249.499861,27.5183333 L258.643611,46.4444444 L258.643611,27.5183333 L264.617222,27.5183333 L264.617222,54.9816667 L256.89125,54.9816667 L247.787222,36.9202778 L247.787222,36.9202778 Z" id="Shape" fill="#000000" sketch:type="MSShapeGroup"></path>
                <rect id="Rectangle-path" fill="#000000" sketch:type="MSShapeGroup" x="269.632917" y="27.5183333" width="6.26541667" height="27.4648611"></rect>
                <path d="M294.063611,41.0440556 L302.498472,54.9819722 L295.942778,54.9819722 L290.555833,45.9115556 L285.168889,54.9819722 L278.613194,54.9819722 L287.006806,41.0440556 L278.905,27.5171111 L285.460694,27.5171111 L290.555833,36.1780833 L295.650972,27.5171111 L302.206667,27.5171111 L294.063611,41.0440556 L294.063611,41.0440556 Z" id="Shape" fill="#000000" sketch:type="MSShapeGroup"></path>
                <path d="M208.103194,45.5797222 C210.900556,44.4247222 212.153333,42.1147222 212.153333,38.6925 L212.153333,35.3115278 C212.153333,30.1568056 209.649306,27.5183333 202.884306,27.5183333 L191.315972,27.5183333 L191.315972,54.9816667 L197.579861,54.9816667 L197.579861,33.0045833 L202.549722,33.0045833 C205.096528,33.0045833 205.889444,33.8280556 205.889444,35.8890278 L205.889444,38.0752778 C205.889444,40.13625 205.221806,41.0865278 202.549722,41.0865278 L201.237361,41.0865278 L201.255694,46.4444444 L207.392778,54.9816667 L214.825417,54.9816667 L208.103194,45.5797222 L208.103194,45.5797222 Z" id="Shape" fill="#000000" sketch:type="MSShapeGroup"></path>
                <path d="M30.4652639,80.9111111 L33.4367917,80.9111111 C35.5206806,80.9111111 36.1394306,80.0448611 36.1394306,78.4361111 L36.1394306,72.8245833 C36.1394306,71.2143056 35.5206806,70.3480556 33.4367917,70.3480556 L30.4652639,70.3480556 L30.4652639,80.9111111 L30.4652639,80.9111111 Z M33.4979028,68.7591667 C36.8620694,68.7591667 37.9131806,70.5130556 37.9131806,72.6993056 L37.9131806,78.5598611 C37.9131806,80.7461111 36.8620694,82.5 33.4979028,82.5 L28.6915139,82.5 L28.6915139,68.7591667 L33.4979028,68.7591667 L33.4979028,68.7591667 Z" id="Shape" fill="#666666" sketch:type="MSShapeGroup"></path>
                <rect id="Rectangle-path" fill="#666666" sketch:type="MSShapeGroup" x="56.7813889" y="68.7591667" width="1.77527778" height="13.7408333"></rect>
                <path d="M81.4093194,82.7067083 C80.0893194,82.7067083 78.5004306,82.4592083 77.3240417,81.9840694 L77.6143194,80.5403194 C78.8716806,80.9314306 80.1932083,81.1392083 81.4505694,81.1392083 C83.6582083,81.1392083 84.1119583,80.5601806 84.1119583,78.9926806 C84.1119583,77.1364306 84.0920972,76.9714306 81.2657083,76.3312917 C77.9427917,75.5887917 77.5516806,74.9486528 77.5516806,72.1024028 C77.5516806,69.708375 78.5416806,68.553375 81.9455694,68.553375 C83.1418194,68.553375 84.5657083,68.718375 85.6595972,69.007125 L85.5159861,70.5135139 C84.4220972,70.2660139 83.1219583,70.120875 81.9868194,70.120875 C79.7379306,70.120875 79.3254306,70.5761528 79.3254306,72.1635139 C79.3254306,74.0625417 79.3254306,74.1450417 82.0494583,74.8249028 C85.7008472,75.7339306 85.8872361,76.2701806 85.8872361,78.9514306 C85.8872361,81.3439306 85.1844583,82.7067083 81.4093194,82.7067083" id="Shape" fill="#666666" sketch:type="MSShapeGroup"></path>
                <path d="M107.417444,70.3479028 L103.310778,70.3479028 L103.310778,68.7590139 L113.297861,68.7590139 L113.297861,70.3479028 L109.191194,70.3479028 L109.191194,82.4998472 L107.417444,82.4998472 L107.417444,70.3479028 L107.417444,70.3479028 Z" id="Shape" fill="#666666" sketch:type="MSShapeGroup"></path>
                <path d="M136.312917,70.3479028 L132.909028,70.3479028 L132.909028,75.9594306 L136.312917,75.9594306 C138.004167,75.9594306 138.583194,75.4858194 138.583194,74.1444306 L138.583194,72.1629028 C138.583194,70.8016528 138.004167,70.3479028 136.312917,70.3479028 L136.312917,70.3479028 Z M136.271667,77.5284583 L132.909028,77.5284583 L132.909028,82.4998472 L131.135278,82.4998472 L131.135278,68.7590139 L136.375556,68.7590139 C139.325694,68.7590139 140.356944,70.0392917 140.356944,72.1430417 L140.356944,74.1245694 C140.356944,75.7531806 139.758056,76.8684583 138.170694,77.3206806 L141.739583,82.4998472 L139.696944,82.4998472 L136.271667,77.5284583 L136.271667,77.5284583 Z" id="Shape" fill="#666666" sketch:type="MSShapeGroup"></path>
                <rect id="Rectangle-path" fill="#666666" sketch:type="MSShapeGroup" x="159.946111" y="68.7591667" width="1.77527778" height="13.7408333"></rect>
                <path d="M188.226806,77.9614306 C188.226806,76.8675417 187.608056,76.2701806 186.246806,76.2701806 L182.780278,76.2701806 L182.780278,80.9726806 L186.349167,80.9726806 C187.608056,80.9726806 188.226806,80.4364306 188.226806,79.4051806 L188.226806,77.9614306 L188.226806,77.9614306 Z M187.773056,71.5860139 C187.773056,70.6999028 187.278056,70.2874028 186.205556,70.2874028 L182.780278,70.2874028 L182.780278,74.7424028 L185.916806,74.7424028 C187.258194,74.7424028 187.773056,74.1236528 187.773056,73.1336528 L187.773056,71.5860139 L187.773056,71.5860139 Z M181.006528,82.5004583 L181.006528,68.759625 L186.307917,68.759625 C188.474306,68.759625 189.546806,69.7297639 189.546806,71.5447639 L189.546806,73.1336528 C189.546806,74.1862917 189.196944,74.9700417 187.979306,75.4237917 C189.177083,75.6300417 190.002083,76.4336528 190.002083,77.8987917 L190.002083,79.5503194 C190.002083,81.4676806 188.660694,82.5004583 186.598194,82.5004583 L181.006528,82.5004583 L181.006528,82.5004583 Z" id="Shape" fill="#666666" sketch:type="MSShapeGroup"></path>
                <path d="M218.091806,68.759625 L218.091806,78.6412917 C218.091806,80.8901806 216.791667,82.7067083 213.222778,82.7067083 C209.653889,82.7067083 208.35375,80.8901806 208.35375,78.6412917 L208.35375,68.759625 L210.129028,68.759625 L210.129028,78.5389306 C210.129028,80.2301806 211.056389,81.1178194 213.222778,81.1178194 C215.389167,81.1178194 216.318056,80.2301806 216.318056,78.5389306 L216.318056,68.759625 L218.091806,68.759625 L218.091806,68.759625 Z" id="Shape" fill="#666666" sketch:type="MSShapeGroup"></path>
                <path d="M239.931389,70.3479028 L235.824722,70.3479028 L235.824722,68.7590139 L245.811806,68.7590139 L245.811806,70.3479028 L241.705139,70.3479028 L241.705139,82.4998472 L239.931389,82.4998472 L239.931389,70.3479028 L239.931389,70.3479028 Z" id="Shape" fill="#666666" sketch:type="MSShapeGroup"></path>
                <path d="M264.7425,78.4978333 C264.7425,80.1890833 265.77375,81.1393611 267.940139,81.1393611 C270.106528,81.1393611 271.139306,80.1890833 271.139306,78.4978333 L271.139306,72.7625556 C271.139306,71.0697778 270.106528,70.1210278 267.940139,70.1210278 C265.77375,70.1210278 264.7425,71.0697778 264.7425,72.7625556 L264.7425,78.4978333 L264.7425,78.4978333 Z M272.913056,78.5390833 C272.913056,80.8292222 271.489167,82.7068611 267.940139,82.7068611 C264.392639,82.7068611 262.96875,80.8292222 262.96875,78.5390833 L262.96875,72.7213056 C262.96875,70.4311667 264.392639,68.5535278 267.940139,68.5535278 C271.489167,68.5535278 272.913056,70.4311667 272.913056,72.7213056 L272.913056,78.5390833 L272.913056,78.5390833 Z" id="Shape" fill="#666666" sketch:type="MSShapeGroup"></path>
                <path d="M296.960278,70.3479028 L293.556389,70.3479028 L293.556389,75.9594306 L296.960278,75.9594306 C298.651528,75.9594306 299.230556,75.4858194 299.230556,74.1444306 L299.230556,72.1629028 C299.230556,70.8016528 298.651528,70.3479028 296.960278,70.3479028 L296.960278,70.3479028 Z M296.919028,77.5284583 L293.556389,77.5284583 L293.556389,82.4998472 L291.782639,82.4998472 L291.782639,68.7590139 L297.022917,68.7590139 C299.973056,68.7590139 301.004306,70.0392917 301.004306,72.1430417 L301.004306,74.1245694 C301.004306,75.7531806 300.405417,76.8684583 298.818056,77.3206806 L302.386944,82.4998472 L300.344306,82.4998472 L296.919028,77.5284583 L296.919028,77.5284583 Z" id="Shape" fill="#666666" sketch:type="MSShapeGroup"></path>
            </g>
        </g>
    </g>
</svg>