<?xml version="1.0" encoding="UTF-8" standalone="no"?>
<svg width="213px" height="167px" viewBox="0 0 213 167" version="1.1" xmlns="http://www.w3.org/2000/svg" xmlns:xlink="http://www.w3.org/1999/xlink" xmlns:sketch="http://www.bohemiancoding.com/sketch/ns">
    <!-- Generator: Sketch 3.3.2 (12043) - http://www.bohemiancoding.com/sketch -->
    <title>logo_SummitCrest</title>
    <desc>Created with Sketch.</desc>
    <defs></defs>
    <g id="Page-1" stroke="none" stroke-width="1" fill="none" fill-rule="evenodd" sketch:type="MSPage">
        <g id="logo_SummitCrest" sketch:type="MSArtboardGroup">
            <g id="Group" sketch:type="MSLayerGroup" transform="translate(20.000000, 19.998016)">
                <g transform="translate(0.000000, 112.930556)" sketch:type="MSShapeGroup">
                    <path d="M4.35898214,12.1508472 C6.27204978,12.1508472 7.22858532,11.4963752 7.22858532,10.1874345 C7.22858532,9.78468435 7.14362996,9.44171528 6.97371925,9.15853075 C6.80380853,8.87534623 6.57411327,8.62991964 6.2846369,8.42225099 C5.99515951,8.21458234 5.66477859,8.03523214 5.29349107,7.8842004 C4.92220355,7.73316865 4.52889286,7.5821369 4.11355556,7.43110516 C3.6352895,7.26748732 3.18219427,7.08184425 2.75426984,6.8741756 C2.32634542,6.66650694 1.95506133,6.42108036 1.64041071,6.13789583 C1.32576113,5.85471131 1.07718931,5.51803752 0.894691468,5.12787103 C0.712194661,4.73770454 0.620946429,4.26573034 0.620946429,3.71194841 C0.620946429,2.56662319 1.01111292,1.67301984 1.79144246,1.03113492 C2.571772,0.38925 3.64787319,0.0683075397 5.01974603,0.0683075397 C5.8126627,0.0683075397 6.53321113,0.153262897 7.1813879,0.323173611 C7.82956466,0.493084325 8.30468651,0.678726369 8.60675,0.880103175 L8.02150198,2.37154167 C7.75719643,2.20792383 7.36388573,2.0474526 6.84156647,1.89012798 C6.3192472,1.73280336 5.71197601,1.65414087 5.01974603,1.65414087 C4.66733748,1.65414087 4.34010317,1.69189881 4.03803968,1.76741468 C3.73597619,1.84293056 3.47167063,1.95620437 3.24512302,2.10723611 C3.0185754,2.25826786 2.8392252,2.45020415 2.70707242,2.68304464 C2.57491964,2.91588514 2.50884325,3.18962915 2.50884325,3.50427976 C2.50884325,3.85668831 2.57806625,4.15245653 2.7165119,4.39159127 C2.85495756,4.63072498 3.05004046,4.84153887 3.30175992,5.02403671 C3.55347938,5.20653351 3.84610236,5.37329762 4.17963194,5.52432937 C4.5131605,5.67536111 4.88130141,5.82639286 5.28405159,5.9774246 C5.85042063,6.20397222 6.36959226,6.43051984 6.84156647,6.65706746 C7.31354067,6.88361508 7.72258613,7.15421248 8.0686994,7.4688631 C8.41481268,7.78351268 8.68226587,8.15794544 8.87105556,8.59216171 C9.05984524,9.02637798 9.15424008,9.55184145 9.15424008,10.1685556 C9.15424008,11.3138808 8.73575514,12.194897 7.89878869,12.8116111 C7.06182224,13.4283252 5.88188673,13.7366806 4.35898214,13.7366806 C3.84295815,13.7366806 3.36783631,13.7020692 2.93362004,13.6328462 C2.49940377,13.5636232 2.11238492,13.4818145 1.77256349,13.3874196 C1.43274206,13.2930248 1.14011806,13.1923371 0.894691468,13.0853562 C0.649264881,12.9783752 0.45732756,12.887127 0.318882937,12.8116111 L0.866373016,11.3012937 C1.15585041,11.4649115 1.59636093,11.6474069 2.18790079,11.8487837 C2.77944065,12.0501595 3.50313673,12.1508472 4.35898214,12.1508472 L4.35898214,12.1508472 Z" id="Shape" fill="#000000"></path>
                    <path d="M20.5948948,13.7366806 C19.7390494,13.7366806 18.9964744,13.6045278 18.3671766,13.3402222 C17.7378788,13.0759167 17.2218514,12.7140686 16.8191012,12.2546815 C16.416351,11.7952945 16.1174317,11.2509486 15.9223502,10.6216508 C15.7272676,9.992353 15.6297262,9.31271014 15.6297262,8.58272222 L15.6297262,0.370371032 L17.4609861,0.370371032 L17.4609861,8.37505357 C17.4609861,9.68399423 17.7504635,10.6342379 18.3294187,11.2257778 C18.9083748,11.8173176 19.6635336,12.1130893 20.5948948,12.1130893 C21.0605772,12.1130893 21.485354,12.04072 21.8692252,11.8959812 C22.2530964,11.7512423 22.5834784,11.5278413 22.860371,11.2257778 C23.1372627,10.9237143 23.3512242,10.5366954 23.502256,10.0647212 C23.6532877,9.59274702 23.7288036,9.02952562 23.7288036,8.37505357 L23.7288036,0.370371032 L25.5600635,0.370371032 L25.5600635,8.58272222 C25.5600635,9.31271014 25.462522,9.992353 25.2674395,10.6216508 C25.0723569,11.2509486 24.7702945,11.7952945 24.361249,12.2546815 C23.9522036,12.7140686 23.4361796,13.0759167 22.8131736,13.3402222 C22.1901677,13.6045278 21.4507403,13.7366806 20.5948948,13.7366806 L20.5948948,13.7366806 Z" id="Shape" fill="#000000"></path>
                    <path d="M38.945252,11.6411151 C38.8193921,11.3390516 38.652628,10.9551804 38.4449593,10.489498 C38.2372907,10.0238157 38.0138907,9.52037879 37.774756,8.97918056 C37.5356222,8.43798232 37.2807551,7.88105276 37.0101577,7.30839187 C36.7395593,6.73573097 36.4846943,6.19453274 36.2455595,5.6848006 C36.0064258,5.17506845 35.7830248,4.71882558 35.5753562,4.3160754 C35.3676875,3.91332522 35.2009244,3.60496645 35.0750635,3.39100595 C34.9366178,4.8761526 34.823344,6.48400911 34.7352421,8.21458234 C34.6471401,9.94515558 34.5716242,11.6914704 34.5086944,13.453496 L32.7151925,13.453496 C32.7655365,12.3207579 32.8221734,11.1785804 32.8851032,10.0269633 C32.948033,8.87534623 33.0204026,7.74260813 33.1022113,6.62874901 C33.1840201,5.51488988 33.272122,4.42934921 33.3665169,3.37212698 C33.4609117,2.31490476 33.564746,1.31431944 33.6780198,0.370371032 L35.2827321,0.370371032 C35.6225536,0.924152956 35.9875458,1.578625 36.3777123,2.33378373 C36.7678788,3.08894246 37.1580418,3.87871149 37.5482083,4.70309425 C37.9383748,5.527477 38.3159542,6.35185633 38.6809464,7.17623909 C39.0459387,8.00062185 39.3794683,8.75263294 39.6815317,9.43227579 C39.9835952,8.75263294 40.3171248,8.00062185 40.6821171,7.17623909 C41.0471093,6.35185633 41.4246887,5.527477 41.8148552,4.70309425 C42.2050216,3.87871149 42.5951847,3.08894246 42.9853512,2.33378373 C43.3755177,1.578625 43.7405099,0.924152956 44.0803313,0.370371032 L45.6850437,0.370371032 C46.1129681,4.5866625 46.4339105,8.94770417 46.647871,13.453496 L44.854369,13.453496 C44.7914393,11.6914601 44.7159234,9.94516587 44.6278214,8.21458234 C44.5397195,6.48400911 44.4264457,4.8761526 44.288,3.39100595 C44.1621401,3.60496748 43.995376,3.91332522 43.7877073,4.3160754 C43.5800387,4.71882558 43.3566387,5.17506845 43.117504,5.6848006 C42.8783703,6.19453274 42.6235032,6.73573097 42.3529058,7.30839187 C42.0823073,7.88105276 41.8274423,8.43798232 41.5883075,8.97918056 C41.3491738,9.52037879 41.1257728,10.0238157 40.9181042,10.489498 C40.7104355,10.9551804 40.5436724,11.3390516 40.4178115,11.6411151 L38.945252,11.6411151 L38.945252,11.6411151 Z" id="Shape" fill="#000000"></path>
                    <path d="M59.749875,11.6411151 C59.6240151,11.3390516 59.457251,10.9551804 59.2495823,10.489498 C59.0419137,10.0238157 58.8185137,9.52037879 58.579379,8.97918056 C58.3402453,8.43798232 58.0853782,7.88105276 57.8147808,7.30839187 C57.5441823,6.73573097 57.2893173,6.19453274 57.0501825,5.6848006 C56.8110488,5.17506845 56.5876478,4.71882558 56.3799792,4.3160754 C56.1723105,3.91332522 56.0055474,3.60496645 55.8796865,3.39100595 C55.7412409,4.8761526 55.627967,6.48400911 55.5398651,8.21458234 C55.4517631,9.94515558 55.3762472,11.6914704 55.3133175,13.453496 L53.5198155,13.453496 C53.5701595,12.3207579 53.6267964,11.1785804 53.6897262,10.0269633 C53.752656,8.87534623 53.8250256,7.74260813 53.9068343,6.62874901 C53.9886431,5.51488988 54.076745,4.42934921 54.1711399,3.37212698 C54.2655347,2.31490476 54.369369,1.31431944 54.4826429,0.370371032 L56.0873552,0.370371032 C56.4271766,0.924152956 56.7921688,1.578625 57.1823353,2.33378373 C57.5725018,3.08894246 57.9626649,3.87871149 58.3528313,4.70309425 C58.7429978,5.527477 59.1205772,6.35185633 59.4855694,7.17623909 C59.8505617,8.00062185 60.1840913,8.75263294 60.4861548,9.43227579 C60.7882183,8.75263294 61.1217478,8.00062185 61.4867401,7.17623909 C61.8517323,6.35185633 62.2293117,5.527477 62.6194782,4.70309425 C63.0096447,3.87871149 63.3998077,3.08894246 63.7899742,2.33378373 C64.1801407,1.578625 64.5451329,0.924152956 64.8849544,0.370371032 L66.4896667,0.370371032 C66.9175911,4.5866625 67.2385336,8.94770417 67.452494,13.453496 L65.6589921,13.453496 C65.5960623,11.6914601 65.5205464,9.94516587 65.4324444,8.21458234 C65.3443425,6.48400911 65.2310687,4.8761526 65.092623,3.39100595 C64.9667631,3.60496748 64.799999,3.91332522 64.5923304,4.3160754 C64.3846617,4.71882558 64.1612617,5.17506845 63.922127,5.6848006 C63.6829933,6.19453274 63.4281262,6.73573097 63.1575288,7.30839187 C62.8869303,7.88105276 62.6320653,8.43798232 62.3929306,8.97918056 C62.1537968,9.52037879 61.9303958,10.0238157 61.7227272,10.489498 C61.5150585,10.9551804 61.3482955,11.3390516 61.2224345,11.6411151 L59.749875,11.6411151 L59.749875,11.6411151 Z" id="Shape" fill="#000000"></path>
                    <rect id="Rectangle-path" fill="#000000" x="74.6831389" y="0.370371032" width="1.83125992" height="13.083125"></rect>
                    <path d="M92.8635853,0.370371032 L92.8635853,1.95620437 L88.7479702,1.95620437 L88.7479702,13.453496 L86.9167103,13.453496 L86.9167103,1.95620437 L82.8010952,1.95620437 L82.8010952,0.370371032 L92.8635853,0.370371032 L92.8635853,0.370371032 Z" id="Shape" fill="#000000"></path>
                    <path d="M105.002762,13.7178016 C102.87573,13.7178016 101.255287,13.1262617 100.141428,11.9431786 C99.0275685,10.7600954 98.4706389,9.07986724 98.4706389,6.90249405 C98.4706389,5.82010101 98.6405496,4.85412599 98.980371,4.00457242 C99.3201925,3.15501885 99.7858748,2.43761806 100.377415,1.85237004 C100.968955,1.26712202 101.673772,0.82346627 102.491859,0.521402778 C103.309947,0.219339286 104.197258,0.0683075397 105.153794,0.0683075397 C105.707576,0.0683075397 106.211016,0.109212085 106.664111,0.191020833 C107.117206,0.272829581 107.513665,0.367224423 107.853486,0.474205357 C108.193308,0.581186292 108.476492,0.691313492 108.70304,0.804587302 C108.929587,0.917861111 109.093206,1.00596308 109.193893,1.06889286 L108.344339,3.44764286 C107.941589,3.23368133 107.472759,3.05118452 106.937856,2.90015278 C106.402953,2.74912103 105.795679,2.67360516 105.116036,2.67360516 C104.66294,2.67360516 104.219285,2.74912103 103.785068,2.90015278 C103.350852,3.05118452 102.966981,3.29346347 102.633451,3.62699306 C102.299923,3.96052161 102.032472,4.39159127 101.831095,4.92020238 C101.629719,5.44881349 101.529032,6.09069841 101.529032,6.84585714 C101.529032,7.44998413 101.595108,8.01320554 101.727261,8.5355248 C101.859414,9.05784407 102.073374,9.50779167 102.369146,9.88537103 C102.664916,10.2629504 103.051936,10.5618663 103.530202,10.782122 C104.008468,11.0023768 104.587425,11.112504 105.267067,11.112504 C105.694992,11.112504 106.078863,11.087332 106.418685,11.0369881 C106.758506,10.9866441 107.060569,10.9268609 107.324875,10.8576379 C107.589181,10.7884149 107.82202,10.7097528 108.023397,10.6216508 C108.224773,10.5335488 108.407268,10.4517401 108.570887,10.3762242 L109.382683,12.7360952 C108.967345,12.9878147 108.382097,13.2143613 107.626938,13.4157381 C106.87178,13.6171139 105.997055,13.7178016 105.002762,13.7178016 L105.002762,13.7178016 Z" id="Shape" fill="#005DAA"></path>
                    <path d="M119.633962,0.219339286 C121.597375,0.219339286 123.101411,0.568600198 124.146036,1.26712202 C125.190671,1.96564385 125.71299,3.05118452 125.71299,4.52374405 C125.71299,5.44252165 125.502175,6.18824089 125.080545,6.76090179 C124.658915,7.33356268 124.051641,7.78351371 123.258724,8.11074802 C123.52303,8.43798335 123.799922,8.81241748 124.089399,9.23404663 C124.378876,9.65567577 124.665207,10.0961873 124.948392,10.5555744 C125.231576,11.0149615 125.505321,11.493231 125.769627,11.990376 C126.033933,12.487521 126.279359,12.97523 126.505907,13.453496 L123.202087,13.453496 C122.962954,13.0255716 122.720674,12.5913553 122.475247,12.1508472 C122.22982,11.7103391 121.978102,11.2824147 121.720088,10.8670774 C121.462076,10.4517401 121.207209,10.0584294 120.95549,9.68714187 C120.703771,9.31585435 120.45205,8.97918056 120.200331,8.67711706 L118.746651,8.67711706 L118.746651,13.453496 L115.801532,13.453496 L115.801532,0.559160714 C116.443417,0.433300812 117.107328,0.345199188 117.793263,0.294855159 C118.479198,0.244511129 119.092764,0.219339286 119.633962,0.219339286 L119.633962,0.219339286 Z M119.803873,2.73024206 C119.589911,2.73024206 119.397975,2.73653504 119.228064,2.74912103 C119.058154,2.76170702 118.897683,2.77429298 118.746651,2.78687897 L118.746651,6.336125 L119.577325,6.336125 C120.684893,6.336125 121.477809,6.19767935 121.956075,5.9207877 C122.434341,5.64389605 122.673476,5.17192081 122.673476,4.50486508 C122.673476,3.86298016 122.431196,3.40673728 121.946636,3.13613988 C121.462075,2.86554145 120.747821,2.73024206 119.803873,2.73024206 L119.803873,2.73024206 Z" id="Shape" fill="#005DAA"></path>
                    <path d="M132.924756,13.453496 L132.924756,0.370371032 L141.760113,0.370371032 L141.760113,2.84351587 L135.869875,2.84351587 L135.869875,5.41105556 L141.099349,5.41105556 L141.099349,7.82756349 L135.869875,7.82756349 L135.869875,10.9803512 L142.194329,10.9803512 L142.194329,13.453496 L132.924756,13.453496 L132.924756,13.453496 Z" id="Shape" fill="#005DAA"></path>
                    <path d="M152.464488,11.2068988 C152.879825,11.2068988 153.222794,11.1722875 153.493392,11.1030645 C153.76399,11.0338415 153.981097,10.9394466 154.144716,10.81988 C154.308334,10.7003133 154.421608,10.558721 154.484538,10.3951032 C154.547467,10.2314853 154.578933,10.0489899 154.578933,9.8476131 C154.578933,9.41968867 154.377557,9.06413591 153.974806,8.78095139 C153.572055,8.49776687 152.879825,8.19255573 151.898119,7.86532143 C151.470195,7.71428968 151.042274,7.54123236 150.614349,7.3461498 C150.186425,7.15106724 149.802554,6.90564169 149.462732,6.60987004 C149.122911,6.31409942 148.846018,5.955398 148.632058,5.53376885 C148.418096,5.1121397 148.311115,4.59925992 148.311115,3.99513294 C148.311115,3.39100595 148.424389,2.84666351 148.650937,2.36210218 C148.877484,1.87754085 149.198427,1.46535119 149.613764,1.12552976 C150.029101,0.785708333 150.532541,0.524550417 151.124081,0.342052579 C151.715621,0.159555772 152.38268,0.0683075397 153.125252,0.0683075397 C154.006272,0.0683075397 154.767722,0.162702381 155.409607,0.351492063 C156.051492,0.540281746 156.580103,0.747950397 156.99544,0.974498016 L156.145887,3.29661111 C155.780895,3.10782143 155.374997,2.94105835 154.928193,2.79631845 C154.48139,2.65157958 153.943339,2.57921032 153.314042,2.57921032 C152.609228,2.57921032 152.10264,2.67675177 151.794285,2.87183433 C151.485928,3.06691688 151.33175,3.36583514 151.33175,3.76858532 C151.33175,4.00771903 151.388387,4.20909343 151.501661,4.3727123 C151.614935,4.53633014 151.775406,4.68421528 151.983074,4.81636806 C152.190743,4.94852083 152.429878,5.06808752 152.700475,5.17506845 C152.971074,5.28204939 153.269992,5.39217659 153.597226,5.5054504 C154.276869,5.75716986 154.868409,6.00574306 155.371849,6.25116964 C155.87529,6.49659623 156.293771,6.78292839 156.627301,7.1101627 C156.960829,7.43739803 157.209401,7.82127165 157.37302,8.26177976 C157.536638,8.70228788 157.618446,9.23719427 157.618446,9.86649206 C157.618446,11.0873332 157.190522,12.0344258 156.334677,12.7077768 C155.478831,13.3811278 154.188766,13.7178016 152.464488,13.7178016 C151.885532,13.7178016 151.363216,13.6831903 150.897534,13.6139673 C150.431851,13.5447443 150.019662,13.4597889 149.660961,13.3591012 C149.302261,13.2584135 148.993906,13.1514325 148.735892,13.0381587 C148.477879,12.9248849 148.26077,12.817904 148.084567,12.7172163 L148.915242,10.3762242 C149.305409,10.5901857 149.786822,10.782122 150.359483,10.9520327 C150.932144,11.1219435 151.633813,11.2068988 152.464488,11.2068988 L152.464488,11.2068988 Z" id="Shape" fill="#005DAA"></path>
                    <path d="M172.917276,0.370371032 L172.917276,2.88127381 L168.971571,2.88127381 L168.971571,13.453496 L166.026452,13.453496 L166.026452,2.88127381 L162.080748,2.88127381 L162.080748,0.370371032 L172.917276,0.370371032 L172.917276,0.370371032 Z" id="Shape" fill="#005DAA"></path>
                </g>
                <path d="M129.925746,79.8649008 L83.753625,0 L26.6025258,98.8571429 L125.787819,98.8571429 L129.925746,79.8649008 L129.925746,79.8649008 Z" id="Shape" fill="#005DAA" sketch:type="MSShapeGroup"></path>
                <path d="M137.793127,78.9401746 L149.382067,98.8571429 L157.896825,98.8571429 L140.985732,69.7938294 C140.326685,68.6617778 139.109849,67.9642857 137.793127,67.9642857 C136.475032,67.9642857 135.25751,68.6617778 134.599149,69.7938294 L117.736111,98.8571429 L126.251899,98.8571429 L137.793127,78.9401746 L137.793127,78.9401746 Z" id="Shape" fill="#000000" sketch:type="MSShapeGroup"></path>
                <path d="M69.3373016,41.0366984 L83.7525952,16.4761905 L98.1706349,41.0366984 L87.2867381,35.3287282 L83.7525952,41.4496329 L80.2208552,35.3287282 L69.3373016,41.0366984 L69.3373016,41.0366984 Z" id="Shape" fill="#FFFFFF" sketch:type="MSShapeGroup"></path>
                <path d="M40.9728532,74.0000635 L45.2031151,66.6825754 L39.8658591,57.4384028 C39.2116171,56.3053214 38.0033631,55.6074861 36.6955655,55.6074861 C35.3867381,55.6074861 34.1781409,56.3053214 33.5242421,57.4384028 L9.61111111,98.8574861 L18.0671726,98.8574861 L36.6955655,66.5916131 L40.9728532,74.0000635 L40.9728532,74.0000635 Z" id="Shape" fill="#000000" sketch:type="MSShapeGroup"></path>
            </g>
        </g>
    </g>
</svg>